<svg width="36" height="40" viewBox="0 0 36 40" fill="none" xmlns="http://www.w3.org/2000/svg">
<path fill-rule="evenodd" clip-rule="evenodd" d="M19 27.5865C19 29.3675 21.1542 30.2604 22.4141 29.0006L30.7067 20.717C31.0974 20.3267 31.0978 19.6935 30.7075 19.3028L22.4155 11.0008C21.1552 9.74048 19 10.6324 19 12.4145V17.9985H21L21.0009 12.4146L28.5858 20.0087L21 27.5865V24.0095C21 23.4572 20.5523 23.0095 20 23.0095H9V25.0095H19V27.5865ZM7.41247 15.9999L8.70711 14.7053C9.09763 14.3147 9.09763 13.6816 8.70711 13.2911C8.31658 12.9005 7.68342 12.9005 7.29289 13.2911L4.29289 16.2911C3.90237 16.6816 3.90237 17.3147 4.29289 17.7053L7.29289 20.7053C7.68342 21.0958 8.31658 21.0958 8.70711 20.7053C9.09763 20.3147 9.09763 19.6816 8.70711 19.2911L7.41596 17.9999L17.0002 17.9982L16.9998 15.9982L7.41247 15.9999Z" fill="#08A652"/>
</svg>
