<svg width="36" height="40" viewBox="0 0 36 40" fill="none" xmlns="http://www.w3.org/2000/svg">
<path fill-rule="evenodd" clip-rule="evenodd" d="M12.3359 11C14.8212 11 16.8359 13.0147 16.8359 15.5C16.8359 17.9853 14.8212 20 12.3359 20C9.85065 20 7.83594 17.9853 7.83594 15.5C7.83594 13.0147 9.85065 11 12.3359 11ZM12.3359 13C10.9552 13 9.83594 14.1193 9.83594 15.5C9.83594 16.8807 10.9552 18 12.3359 18C13.7167 18 14.8359 16.8807 14.8359 15.5C14.8359 14.1193 13.7167 13 12.3359 13ZM23.3359 22C25.8212 22 27.8359 24.0147 27.8359 26.5C27.8359 28.9853 25.8212 31 23.3359 31C20.8507 31 18.8359 28.9853 18.8359 26.5C18.8359 24.0147 20.8507 22 23.3359 22ZM23.3359 24C21.9552 24 20.8359 25.1193 20.8359 26.5C20.8359 27.8807 21.9552 29 23.3359 29C24.7167 29 25.8359 27.8807 25.8359 26.5C25.8359 25.1193 24.7167 24 23.3359 24ZM9.54304 30.7071L27.543 12.7071C27.9336 12.3166 27.9336 11.6834 27.543 11.2929C27.1525 10.9024 26.5194 10.9024 26.1288 11.2929L8.12883 29.2929C7.73831 29.6834 7.73831 30.3166 8.12883 30.7071C8.51936 31.0976 9.15252 31.0976 9.54304 30.7071Z" fill="#08A652"/>
</svg>
