<svg width="26" height="25" viewBox="0 0 26 25" fill="none" xmlns="http://www.w3.org/2000/svg">
<path fill-rule="evenodd" clip-rule="evenodd" d="M0.0005 13.9185C0.0005 6.73884 5.82055 0.918457 13.0005 0.918457C20.1798 0.918457 26.0005 6.73917 26.0005 13.9185C26.0005 14.2032 25.9913 14.4865 25.973 14.7679C25.9906 14.8423 26 14.92 26 14.9999C26 15.1426 25.9701 15.2783 25.9162 15.4011C25.5434 18.6632 23.9501 21.6376 21.4633 23.7749C21.1965 24.0041 20.829 24.0764 20.4953 23.9651C18.0684 23.1562 15.5532 22.7365 13.0005 22.7365C10.4473 22.7365 7.9331 23.156 5.50461 23.9652C5.17096 24.0764 4.80343 24.0041 4.53671 23.7749C2.05095 21.6385 0.458333 18.6653 0.0850641 15.4041C0.0303761 15.2805 0 15.1437 0 14.9999C0 14.9188 0.00963478 14.8401 0.0278211 14.7646C0.00967391 14.4843 0.0005 14.2021 0.0005 13.9185ZM23.9993 13.9999H22L21.8834 14.0066C21.386 14.0644 21 14.487 21 14.9999C21 15.5521 21.4477 15.9999 22 15.9999H23.8027C23.3758 18.2181 22.2736 20.2406 20.6464 21.8143L20.568 21.8869L19.9955 21.7182C17.7193 21.071 15.3754 20.7365 13.0005 20.7365L12.4074 20.7434C10.0376 20.799 7.70296 21.1872 5.432 21.8879L5.35369 21.8144C3.72679 20.2409 2.6249 18.2183 2.19822 15.9999H4L4.11662 15.9931C4.61396 15.9354 5 15.5127 5 14.9999C5 14.4476 4.55228 13.9999 4 13.9999H2.0008L2.0005 13.9185C2.0005 8.18063 6.39356 3.4688 12 2.96334V4.91876L12.0067 5.03538C12.0645 5.53272 12.4872 5.91876 13 5.91876C13.5523 5.91876 14 5.47104 14 4.91876V2.96326C19.6064 3.46833 24.0005 8.18066 24.0005 13.9185L23.9993 13.9999ZM15 16.5819C15 17.6859 14.104 18.5819 13 18.5819C11.896 18.5819 11 17.6859 11 16.5819C11 15.8329 11.918 12.1189 12.51 9.79986C12.64 9.29086 13.36 9.29086 13.49 9.79986C14.082 12.1189 15 15.8329 15 16.5819Z" fill="#08A652"/>
</svg>
