<svg width="36" height="40" viewBox="0 0 36 40" fill="none" xmlns="http://www.w3.org/2000/svg">
<path fill-rule="evenodd" clip-rule="evenodd" d="M36 20C36 29.941 27.941 38 18 38C8.059 38 0 29.941 0 20C0 10.059 8.059 2 18 2C27.941 2 36 10.059 36 20ZM12 11C14.2093 11 16 12.7907 16 15C16 17.2093 14.2093 19 12 19C9.79072 19 8 17.2093 8 15C8 12.7907 9.79072 11 12 11ZM12 13C10.8953 13 10 13.8953 10 15C10 16.1047 10.8953 17 12 17C13.1047 17 14 16.1047 14 15C14 13.8953 13.1047 13 12 13ZM24 21C26.2093 21 28 22.7907 28 25C28 27.2093 26.2093 29 24 29C21.7907 29 20 27.2093 20 25C20 22.7907 21.7907 21 24 21ZM24 23C22.8953 23 22 23.8953 22 25C22 26.1047 22.8953 27 24 27C25.1047 27 26 26.1047 26 25C26 23.8953 25.1047 23 24 23ZM10.7071 28.7071L26.7071 12.7071C27.0976 12.3166 27.0976 11.6834 26.7071 11.2929C26.3166 10.9024 25.6834 10.9024 25.2929 11.2929L9.29289 27.2929C8.90237 27.6834 8.90237 28.3166 9.29289 28.7071C9.68342 29.0976 10.3166 29.0976 10.7071 28.7071Z" fill="#08A652"/>
</svg>
